M48
; DRILL file {KiCad (5.1.9-0-10_14)} date Monday, July 26, 2021 at 10:25:39 AM
; FORMAT={-:-/ absolute / inch / decimal}
; #@! TF.CreationDate,2021-07-26T10:25:39-04:00
; #@! TF.GenerationSoftware,Kicad,Pcbnew,(5.1.9-0-10_14)
; #@! TF.FileFunction,Plated,1,2,PTH
FMAT,2
INCH
T1C0.0157
T2C0.0236
T3C0.0579
%
G90
G05
T1
X2.3425Y-3.8661
X2.4579Y-4.4579
X2.6614Y-3.8661
X2.763Y-3.978
X2.9094Y-3.9138
X3.028Y-4.437
X3.0402Y-4.2439
X3.6146Y-4.6236
X3.7591Y-4.139
T3
X4.025Y-3.71
X4.025Y-4.46
X4.0766Y-3.6525
X4.0766Y-4.4025
X4.2734Y-3.6328
X4.2734Y-4.3828
X4.275Y-3.61
X4.275Y-4.36
X4.775Y-3.71
X4.775Y-4.46
X4.8266Y-3.6525
X4.8266Y-4.4025
X5.0234Y-3.6328
X5.0234Y-4.3828
X5.025Y-3.61
X5.025Y-4.36
T2
G00X2.324Y-3.4705
M15
G01X2.324Y-3.5177
M16
G05
G00X2.324Y-3.6358
M15
G01X2.324Y-3.6673
M16
G05
G00X2.6642Y-3.4705
M15
G01X2.6642Y-3.5177
M16
G05
G00X2.6642Y-3.6358
M15
G01X2.6642Y-3.6673
M16
G05
T0
M30
