G04 #@! TF.GenerationSoftware,KiCad,Pcbnew,(5.1.9-0-10_14)*
G04 #@! TF.CreationDate,2021-07-23T15:49:21-04:00*
G04 #@! TF.ProjectId,4key-pcb,346b6579-2d70-4636-922e-6b696361645f,rev?*
G04 #@! TF.SameCoordinates,Original*
G04 #@! TF.FileFunction,Legend,Bot*
G04 #@! TF.FilePolarity,Positive*
%FSLAX46Y46*%
G04 Gerber Fmt 4.6, Leading zero omitted, Abs format (unit mm)*
G04 Created by KiCad (PCBNEW (5.1.9-0-10_14)) date 2021-07-23 15:49:21*
%MOMM*%
%LPD*%
G01*
G04 APERTURE LIST*
%ADD10C,0.120000*%
%ADD11C,0.150000*%
%ADD12R,0.600000X1.150000*%
%ADD13R,0.300000X1.150000*%
%ADD14O,1.000000X2.200000*%
%ADD15O,1.000000X1.800000*%
%ADD16C,2.250000*%
%ADD17C,3.987800*%
%ADD18C,1.750000*%
%ADD19R,1.400000X1.200000*%
%ADD20R,1.200000X0.900000*%
%ADD21R,1.500000X0.550000*%
%ADD22R,0.550000X1.500000*%
%ADD23R,1.800000X1.100000*%
G04 APERTURE END LIST*
D10*
X58700000Y-91800000D02*
X58700000Y-89900000D01*
X68000000Y-91800000D02*
X68000000Y-89900000D01*
X65685000Y-97035436D02*
X65685000Y-97489564D01*
X64215000Y-97035436D02*
X64215000Y-97489564D01*
X62085000Y-97035436D02*
X62085000Y-97489564D01*
X60615000Y-97035436D02*
X60615000Y-97489564D01*
X92991000Y-104416252D02*
X92991000Y-103893748D01*
X94461000Y-104416252D02*
X94461000Y-103893748D01*
X89081078Y-116690000D02*
X88563922Y-116690000D01*
X89081078Y-118110000D02*
X88563922Y-118110000D01*
X76440000Y-99901078D02*
X76440000Y-99383922D01*
X75020000Y-99901078D02*
X75020000Y-99383922D01*
X74310000Y-113378922D02*
X74310000Y-113896078D01*
X75730000Y-113378922D02*
X75730000Y-113896078D01*
X89830000Y-97498578D02*
X89830000Y-96981422D01*
X88410000Y-97498578D02*
X88410000Y-96981422D01*
X81020000Y-97506078D02*
X81020000Y-96988922D01*
X79600000Y-97506078D02*
X79600000Y-96988922D01*
X74961078Y-107230000D02*
X74443922Y-107230000D01*
X74961078Y-108650000D02*
X74443922Y-108650000D01*
X86620000Y-98940000D02*
X82620000Y-98940000D01*
X86620000Y-95640000D02*
X86620000Y-98940000D01*
X113014000Y-122774000D02*
X111014000Y-122774000D01*
X111014000Y-122774000D02*
X111014000Y-118874000D01*
X113014000Y-122774000D02*
X113014000Y-118874000D01*
X131810000Y-103469000D02*
X131810000Y-99569000D01*
X129810000Y-103469000D02*
X129810000Y-99569000D01*
X131810000Y-103469000D02*
X129810000Y-103469000D01*
X112887000Y-103597000D02*
X110887000Y-103597000D01*
X110887000Y-103597000D02*
X110887000Y-99697000D01*
X112887000Y-103597000D02*
X112887000Y-99697000D01*
X131937000Y-122774000D02*
X131937000Y-118874000D01*
X129937000Y-122774000D02*
X129937000Y-118874000D01*
X131937000Y-122774000D02*
X129937000Y-122774000D01*
X54090000Y-100402064D02*
X54090000Y-99197936D01*
X55910000Y-100402064D02*
X55910000Y-99197936D01*
D11*
X79534000Y-113121500D02*
X78259000Y-113121500D01*
X89884000Y-113696500D02*
X89209000Y-113696500D01*
X89884000Y-103346500D02*
X89209000Y-103346500D01*
X79534000Y-103346500D02*
X80209000Y-103346500D01*
X79534000Y-113696500D02*
X80209000Y-113696500D01*
X79534000Y-103346500D02*
X79534000Y-104021500D01*
X89884000Y-103346500D02*
X89884000Y-104021500D01*
X89884000Y-113696500D02*
X89884000Y-113021500D01*
X79534000Y-113696500D02*
X79534000Y-113121500D01*
D10*
X65160000Y-102471078D02*
X65160000Y-101953922D01*
X63740000Y-102471078D02*
X63740000Y-101953922D01*
X60640000Y-102446078D02*
X60640000Y-101928922D01*
X62060000Y-102446078D02*
X62060000Y-101928922D01*
X94436000Y-113352078D02*
X94436000Y-112834922D01*
X93016000Y-113352078D02*
X93016000Y-112834922D01*
X72770000Y-99418922D02*
X72770000Y-99936078D01*
X71350000Y-99418922D02*
X71350000Y-99936078D01*
D11*
X61909000Y-114367000D02*
X56709000Y-114367000D01*
X56709000Y-114367000D02*
X56709000Y-119567000D01*
X56709000Y-119567000D02*
X61909000Y-119567000D01*
X61909000Y-119567000D02*
X61909000Y-114367000D01*
X60309000Y-116967000D02*
G75*
G03*
X60309000Y-116967000I-1000000J0D01*
G01*
X65088095Y-94402380D02*
X65088095Y-95211904D01*
X65040476Y-95307142D01*
X64992857Y-95354761D01*
X64897619Y-95402380D01*
X64707142Y-95402380D01*
X64611904Y-95354761D01*
X64564285Y-95307142D01*
X64516666Y-95211904D01*
X64516666Y-94402380D01*
X64088095Y-95354761D02*
X63945238Y-95402380D01*
X63707142Y-95402380D01*
X63611904Y-95354761D01*
X63564285Y-95307142D01*
X63516666Y-95211904D01*
X63516666Y-95116666D01*
X63564285Y-95021428D01*
X63611904Y-94973809D01*
X63707142Y-94926190D01*
X63897619Y-94878571D01*
X63992857Y-94830952D01*
X64040476Y-94783333D01*
X64088095Y-94688095D01*
X64088095Y-94592857D01*
X64040476Y-94497619D01*
X63992857Y-94450000D01*
X63897619Y-94402380D01*
X63659523Y-94402380D01*
X63516666Y-94450000D01*
X62754761Y-94878571D02*
X62611904Y-94926190D01*
X62564285Y-94973809D01*
X62516666Y-95069047D01*
X62516666Y-95211904D01*
X62564285Y-95307142D01*
X62611904Y-95354761D01*
X62707142Y-95402380D01*
X63088095Y-95402380D01*
X63088095Y-94402380D01*
X62754761Y-94402380D01*
X62659523Y-94450000D01*
X62611904Y-94497619D01*
X62564285Y-94592857D01*
X62564285Y-94688095D01*
X62611904Y-94783333D01*
X62659523Y-94830952D01*
X62754761Y-94878571D01*
X63088095Y-94878571D01*
X61564285Y-95402380D02*
X62135714Y-95402380D01*
X61850000Y-95402380D02*
X61850000Y-94402380D01*
X61945238Y-94545238D01*
X62040476Y-94640476D01*
X62135714Y-94688095D01*
X64802380Y-99295833D02*
X64326190Y-98962500D01*
X64802380Y-98724404D02*
X63802380Y-98724404D01*
X63802380Y-99105357D01*
X63850000Y-99200595D01*
X63897619Y-99248214D01*
X63992857Y-99295833D01*
X64135714Y-99295833D01*
X64230952Y-99248214D01*
X64278571Y-99200595D01*
X64326190Y-99105357D01*
X64326190Y-98724404D01*
X64707142Y-100295833D02*
X64754761Y-100248214D01*
X64802380Y-100105357D01*
X64802380Y-100010119D01*
X64754761Y-99867261D01*
X64659523Y-99772023D01*
X64564285Y-99724404D01*
X64373809Y-99676785D01*
X64230952Y-99676785D01*
X64040476Y-99724404D01*
X63945238Y-99772023D01*
X63850000Y-99867261D01*
X63802380Y-100010119D01*
X63802380Y-100105357D01*
X63850000Y-100248214D01*
X63897619Y-100295833D01*
X64707142Y-101295833D02*
X64754761Y-101248214D01*
X64802380Y-101105357D01*
X64802380Y-101010119D01*
X64754761Y-100867261D01*
X64659523Y-100772023D01*
X64564285Y-100724404D01*
X64373809Y-100676785D01*
X64230952Y-100676785D01*
X64040476Y-100724404D01*
X63945238Y-100772023D01*
X63850000Y-100867261D01*
X63802380Y-101010119D01*
X63802380Y-101105357D01*
X63850000Y-101248214D01*
X63897619Y-101295833D01*
X63897619Y-101676785D02*
X63850000Y-101724404D01*
X63802380Y-101819642D01*
X63802380Y-102057738D01*
X63850000Y-102152976D01*
X63897619Y-102200595D01*
X63992857Y-102248214D01*
X64088095Y-102248214D01*
X64230952Y-102200595D01*
X64802380Y-101629166D01*
X64802380Y-102248214D01*
X60152380Y-96095833D02*
X59676190Y-95762500D01*
X60152380Y-95524404D02*
X59152380Y-95524404D01*
X59152380Y-95905357D01*
X59200000Y-96000595D01*
X59247619Y-96048214D01*
X59342857Y-96095833D01*
X59485714Y-96095833D01*
X59580952Y-96048214D01*
X59628571Y-96000595D01*
X59676190Y-95905357D01*
X59676190Y-95524404D01*
X60057142Y-97095833D02*
X60104761Y-97048214D01*
X60152380Y-96905357D01*
X60152380Y-96810119D01*
X60104761Y-96667261D01*
X60009523Y-96572023D01*
X59914285Y-96524404D01*
X59723809Y-96476785D01*
X59580952Y-96476785D01*
X59390476Y-96524404D01*
X59295238Y-96572023D01*
X59200000Y-96667261D01*
X59152380Y-96810119D01*
X59152380Y-96905357D01*
X59200000Y-97048214D01*
X59247619Y-97095833D01*
X60057142Y-98095833D02*
X60104761Y-98048214D01*
X60152380Y-97905357D01*
X60152380Y-97810119D01*
X60104761Y-97667261D01*
X60009523Y-97572023D01*
X59914285Y-97524404D01*
X59723809Y-97476785D01*
X59580952Y-97476785D01*
X59390476Y-97524404D01*
X59295238Y-97572023D01*
X59200000Y-97667261D01*
X59152380Y-97810119D01*
X59152380Y-97905357D01*
X59200000Y-98048214D01*
X59247619Y-98095833D01*
X60152380Y-99048214D02*
X60152380Y-98476785D01*
X60152380Y-98762500D02*
X59152380Y-98762500D01*
X59295238Y-98667261D01*
X59390476Y-98572023D01*
X59438095Y-98476785D01*
X95763142Y-103988333D02*
X95810761Y-103940714D01*
X95858380Y-103797857D01*
X95858380Y-103702619D01*
X95810761Y-103559761D01*
X95715523Y-103464523D01*
X95620285Y-103416904D01*
X95429809Y-103369285D01*
X95286952Y-103369285D01*
X95096476Y-103416904D01*
X95001238Y-103464523D01*
X94906000Y-103559761D01*
X94858380Y-103702619D01*
X94858380Y-103797857D01*
X94906000Y-103940714D01*
X94953619Y-103988333D01*
X95858380Y-104940714D02*
X95858380Y-104369285D01*
X95858380Y-104655000D02*
X94858380Y-104655000D01*
X95001238Y-104559761D01*
X95096476Y-104464523D01*
X95144095Y-104369285D01*
X88989166Y-116107142D02*
X89036785Y-116154761D01*
X89179642Y-116202380D01*
X89274880Y-116202380D01*
X89417738Y-116154761D01*
X89512976Y-116059523D01*
X89560595Y-115964285D01*
X89608214Y-115773809D01*
X89608214Y-115630952D01*
X89560595Y-115440476D01*
X89512976Y-115345238D01*
X89417738Y-115250000D01*
X89274880Y-115202380D01*
X89179642Y-115202380D01*
X89036785Y-115250000D01*
X88989166Y-115297619D01*
X88655833Y-115202380D02*
X88036785Y-115202380D01*
X88370119Y-115583333D01*
X88227261Y-115583333D01*
X88132023Y-115630952D01*
X88084404Y-115678571D01*
X88036785Y-115773809D01*
X88036785Y-116011904D01*
X88084404Y-116107142D01*
X88132023Y-116154761D01*
X88227261Y-116202380D01*
X88512976Y-116202380D01*
X88608214Y-116154761D01*
X88655833Y-116107142D01*
X77737142Y-99475833D02*
X77784761Y-99428214D01*
X77832380Y-99285357D01*
X77832380Y-99190119D01*
X77784761Y-99047261D01*
X77689523Y-98952023D01*
X77594285Y-98904404D01*
X77403809Y-98856785D01*
X77260952Y-98856785D01*
X77070476Y-98904404D01*
X76975238Y-98952023D01*
X76880000Y-99047261D01*
X76832380Y-99190119D01*
X76832380Y-99285357D01*
X76880000Y-99428214D01*
X76927619Y-99475833D01*
X76927619Y-99856785D02*
X76880000Y-99904404D01*
X76832380Y-99999642D01*
X76832380Y-100237738D01*
X76880000Y-100332976D01*
X76927619Y-100380595D01*
X77022857Y-100428214D01*
X77118095Y-100428214D01*
X77260952Y-100380595D01*
X77832380Y-99809166D01*
X77832380Y-100428214D01*
X73727142Y-113470833D02*
X73774761Y-113423214D01*
X73822380Y-113280357D01*
X73822380Y-113185119D01*
X73774761Y-113042261D01*
X73679523Y-112947023D01*
X73584285Y-112899404D01*
X73393809Y-112851785D01*
X73250952Y-112851785D01*
X73060476Y-112899404D01*
X72965238Y-112947023D01*
X72870000Y-113042261D01*
X72822380Y-113185119D01*
X72822380Y-113280357D01*
X72870000Y-113423214D01*
X72917619Y-113470833D01*
X73155714Y-114327976D02*
X73822380Y-114327976D01*
X72774761Y-114089880D02*
X73489047Y-113851785D01*
X73489047Y-114470833D01*
X91127142Y-95954285D02*
X91174761Y-95906666D01*
X91222380Y-95763809D01*
X91222380Y-95668571D01*
X91174761Y-95525714D01*
X91079523Y-95430476D01*
X90984285Y-95382857D01*
X90793809Y-95335238D01*
X90650952Y-95335238D01*
X90460476Y-95382857D01*
X90365238Y-95430476D01*
X90270000Y-95525714D01*
X90222380Y-95668571D01*
X90222380Y-95763809D01*
X90270000Y-95906666D01*
X90317619Y-95954285D01*
X90841428Y-96382857D02*
X90841428Y-97144761D01*
X91127142Y-98192380D02*
X91174761Y-98144761D01*
X91222380Y-98001904D01*
X91222380Y-97906666D01*
X91174761Y-97763809D01*
X91079523Y-97668571D01*
X90984285Y-97620952D01*
X90793809Y-97573333D01*
X90650952Y-97573333D01*
X90460476Y-97620952D01*
X90365238Y-97668571D01*
X90270000Y-97763809D01*
X90222380Y-97906666D01*
X90222380Y-98001904D01*
X90270000Y-98144761D01*
X90317619Y-98192380D01*
X91222380Y-99144761D02*
X91222380Y-98573333D01*
X91222380Y-98859047D02*
X90222380Y-98859047D01*
X90365238Y-98763809D01*
X90460476Y-98668571D01*
X90508095Y-98573333D01*
X82317142Y-95961785D02*
X82364761Y-95914166D01*
X82412380Y-95771309D01*
X82412380Y-95676071D01*
X82364761Y-95533214D01*
X82269523Y-95437976D01*
X82174285Y-95390357D01*
X81983809Y-95342738D01*
X81840952Y-95342738D01*
X81650476Y-95390357D01*
X81555238Y-95437976D01*
X81460000Y-95533214D01*
X81412380Y-95676071D01*
X81412380Y-95771309D01*
X81460000Y-95914166D01*
X81507619Y-95961785D01*
X82031428Y-96390357D02*
X82031428Y-97152261D01*
X82317142Y-98199880D02*
X82364761Y-98152261D01*
X82412380Y-98009404D01*
X82412380Y-97914166D01*
X82364761Y-97771309D01*
X82269523Y-97676071D01*
X82174285Y-97628452D01*
X81983809Y-97580833D01*
X81840952Y-97580833D01*
X81650476Y-97628452D01*
X81555238Y-97676071D01*
X81460000Y-97771309D01*
X81412380Y-97914166D01*
X81412380Y-98009404D01*
X81460000Y-98152261D01*
X81507619Y-98199880D01*
X81507619Y-98580833D02*
X81460000Y-98628452D01*
X81412380Y-98723690D01*
X81412380Y-98961785D01*
X81460000Y-99057023D01*
X81507619Y-99104642D01*
X81602857Y-99152261D01*
X81698095Y-99152261D01*
X81840952Y-99104642D01*
X82412380Y-98533214D01*
X82412380Y-99152261D01*
X77440595Y-106647142D02*
X77488214Y-106694761D01*
X77631071Y-106742380D01*
X77726309Y-106742380D01*
X77869166Y-106694761D01*
X77964404Y-106599523D01*
X78012023Y-106504285D01*
X78059642Y-106313809D01*
X78059642Y-106170952D01*
X78012023Y-105980476D01*
X77964404Y-105885238D01*
X77869166Y-105790000D01*
X77726309Y-105742380D01*
X77631071Y-105742380D01*
X77488214Y-105790000D01*
X77440595Y-105837619D01*
X77012023Y-106361428D02*
X76250119Y-106361428D01*
X75773928Y-105742380D02*
X75773928Y-106551904D01*
X75726309Y-106647142D01*
X75678690Y-106694761D01*
X75583452Y-106742380D01*
X75392976Y-106742380D01*
X75297738Y-106694761D01*
X75250119Y-106647142D01*
X75202500Y-106551904D01*
X75202500Y-105742380D01*
X74154880Y-106647142D02*
X74202500Y-106694761D01*
X74345357Y-106742380D01*
X74440595Y-106742380D01*
X74583452Y-106694761D01*
X74678690Y-106599523D01*
X74726309Y-106504285D01*
X74773928Y-106313809D01*
X74773928Y-106170952D01*
X74726309Y-105980476D01*
X74678690Y-105885238D01*
X74583452Y-105790000D01*
X74440595Y-105742380D01*
X74345357Y-105742380D01*
X74202500Y-105790000D01*
X74154880Y-105837619D01*
X73773928Y-106456666D02*
X73297738Y-106456666D01*
X73869166Y-106742380D02*
X73535833Y-105742380D01*
X73202500Y-106742380D01*
X72869166Y-106742380D02*
X72869166Y-105742380D01*
X72488214Y-105742380D01*
X72392976Y-105790000D01*
X72345357Y-105837619D01*
X72297738Y-105932857D01*
X72297738Y-106075714D01*
X72345357Y-106170952D01*
X72392976Y-106218571D01*
X72488214Y-106266190D01*
X72869166Y-106266190D01*
X71345357Y-106742380D02*
X71916785Y-106742380D01*
X71631071Y-106742380D02*
X71631071Y-105742380D01*
X71726309Y-105885238D01*
X71821547Y-105980476D01*
X71916785Y-106028095D01*
X86024761Y-95197142D02*
X86072380Y-95244761D01*
X86215238Y-95292380D01*
X86310476Y-95292380D01*
X86453333Y-95244761D01*
X86548571Y-95149523D01*
X86596190Y-95054285D01*
X86643809Y-94863809D01*
X86643809Y-94720952D01*
X86596190Y-94530476D01*
X86548571Y-94435238D01*
X86453333Y-94340000D01*
X86310476Y-94292380D01*
X86215238Y-94292380D01*
X86072380Y-94340000D01*
X86024761Y-94387619D01*
X85596190Y-95292380D02*
X85596190Y-94625714D01*
X85596190Y-94816190D02*
X85548571Y-94720952D01*
X85500952Y-94673333D01*
X85405714Y-94625714D01*
X85310476Y-94625714D01*
X85072380Y-94625714D02*
X84834285Y-95292380D01*
X84596190Y-94625714D02*
X84834285Y-95292380D01*
X84929523Y-95530476D01*
X84977142Y-95578095D01*
X85072380Y-95625714D01*
X84358095Y-94625714D02*
X83977142Y-94625714D01*
X84215238Y-94292380D02*
X84215238Y-95149523D01*
X84167619Y-95244761D01*
X84072380Y-95292380D01*
X83977142Y-95292380D01*
X83500952Y-95292380D02*
X83596190Y-95244761D01*
X83643809Y-95149523D01*
X83643809Y-94292380D01*
X82596190Y-95292380D02*
X83167619Y-95292380D01*
X82881904Y-95292380D02*
X82881904Y-94292380D01*
X82977142Y-94435238D01*
X83072380Y-94530476D01*
X83167619Y-94578095D01*
X114466380Y-119785904D02*
X113466380Y-119785904D01*
X113466380Y-120024000D01*
X113514000Y-120166857D01*
X113609238Y-120262095D01*
X113704476Y-120309714D01*
X113894952Y-120357333D01*
X114037809Y-120357333D01*
X114228285Y-120309714D01*
X114323523Y-120262095D01*
X114418761Y-120166857D01*
X114466380Y-120024000D01*
X114466380Y-119785904D01*
X113466380Y-120690666D02*
X113466380Y-121309714D01*
X113847333Y-120976380D01*
X113847333Y-121119238D01*
X113894952Y-121214476D01*
X113942571Y-121262095D01*
X114037809Y-121309714D01*
X114275904Y-121309714D01*
X114371142Y-121262095D01*
X114418761Y-121214476D01*
X114466380Y-121119238D01*
X114466380Y-120833523D01*
X114418761Y-120738285D01*
X114371142Y-120690666D01*
X133262380Y-100480904D02*
X132262380Y-100480904D01*
X132262380Y-100719000D01*
X132310000Y-100861857D01*
X132405238Y-100957095D01*
X132500476Y-101004714D01*
X132690952Y-101052333D01*
X132833809Y-101052333D01*
X133024285Y-101004714D01*
X133119523Y-100957095D01*
X133214761Y-100861857D01*
X133262380Y-100719000D01*
X133262380Y-100480904D01*
X132357619Y-101433285D02*
X132310000Y-101480904D01*
X132262380Y-101576142D01*
X132262380Y-101814238D01*
X132310000Y-101909476D01*
X132357619Y-101957095D01*
X132452857Y-102004714D01*
X132548095Y-102004714D01*
X132690952Y-101957095D01*
X133262380Y-101385666D01*
X133262380Y-102004714D01*
X114339380Y-100608904D02*
X113339380Y-100608904D01*
X113339380Y-100847000D01*
X113387000Y-100989857D01*
X113482238Y-101085095D01*
X113577476Y-101132714D01*
X113767952Y-101180333D01*
X113910809Y-101180333D01*
X114101285Y-101132714D01*
X114196523Y-101085095D01*
X114291761Y-100989857D01*
X114339380Y-100847000D01*
X114339380Y-100608904D01*
X114339380Y-102132714D02*
X114339380Y-101561285D01*
X114339380Y-101847000D02*
X113339380Y-101847000D01*
X113482238Y-101751761D01*
X113577476Y-101656523D01*
X113625095Y-101561285D01*
X133389380Y-119785904D02*
X132389380Y-119785904D01*
X132389380Y-120024000D01*
X132437000Y-120166857D01*
X132532238Y-120262095D01*
X132627476Y-120309714D01*
X132817952Y-120357333D01*
X132960809Y-120357333D01*
X133151285Y-120309714D01*
X133246523Y-120262095D01*
X133341761Y-120166857D01*
X133389380Y-120024000D01*
X133389380Y-119785904D01*
X132722714Y-121214476D02*
X133389380Y-121214476D01*
X132341761Y-120976380D02*
X133056047Y-120738285D01*
X133056047Y-121357333D01*
X56748571Y-97347619D02*
X56748571Y-97014285D01*
X57272380Y-97014285D02*
X56272380Y-97014285D01*
X56272380Y-97490476D01*
X56891428Y-97871428D02*
X56891428Y-98633333D01*
X56272380Y-99109523D02*
X57081904Y-99109523D01*
X57177142Y-99157142D01*
X57224761Y-99204761D01*
X57272380Y-99300000D01*
X57272380Y-99490476D01*
X57224761Y-99585714D01*
X57177142Y-99633333D01*
X57081904Y-99680952D01*
X56272380Y-99680952D01*
X57224761Y-100109523D02*
X57272380Y-100252380D01*
X57272380Y-100490476D01*
X57224761Y-100585714D01*
X57177142Y-100633333D01*
X57081904Y-100680952D01*
X56986666Y-100680952D01*
X56891428Y-100633333D01*
X56843809Y-100585714D01*
X56796190Y-100490476D01*
X56748571Y-100300000D01*
X56700952Y-100204761D01*
X56653333Y-100157142D01*
X56558095Y-100109523D01*
X56462857Y-100109523D01*
X56367619Y-100157142D01*
X56320000Y-100204761D01*
X56272380Y-100300000D01*
X56272380Y-100538095D01*
X56320000Y-100680952D01*
X56748571Y-101442857D02*
X56796190Y-101585714D01*
X56843809Y-101633333D01*
X56939047Y-101680952D01*
X57081904Y-101680952D01*
X57177142Y-101633333D01*
X57224761Y-101585714D01*
X57272380Y-101490476D01*
X57272380Y-101109523D01*
X56272380Y-101109523D01*
X56272380Y-101442857D01*
X56320000Y-101538095D01*
X56367619Y-101585714D01*
X56462857Y-101633333D01*
X56558095Y-101633333D01*
X56653333Y-101585714D01*
X56700952Y-101538095D01*
X56748571Y-101442857D01*
X56748571Y-101109523D01*
X57272380Y-102633333D02*
X57272380Y-102061904D01*
X57272380Y-102347619D02*
X56272380Y-102347619D01*
X56415238Y-102252380D01*
X56510476Y-102157142D01*
X56558095Y-102061904D01*
X86542333Y-116423880D02*
X86542333Y-115423880D01*
X86209000Y-116138166D01*
X85875666Y-115423880D01*
X85875666Y-116423880D01*
X84828047Y-116328642D02*
X84875666Y-116376261D01*
X85018523Y-116423880D01*
X85113761Y-116423880D01*
X85256619Y-116376261D01*
X85351857Y-116281023D01*
X85399476Y-116185785D01*
X85447095Y-115995309D01*
X85447095Y-115852452D01*
X85399476Y-115661976D01*
X85351857Y-115566738D01*
X85256619Y-115471500D01*
X85113761Y-115423880D01*
X85018523Y-115423880D01*
X84875666Y-115471500D01*
X84828047Y-115519119D01*
X84399476Y-115423880D02*
X84399476Y-116233404D01*
X84351857Y-116328642D01*
X84304238Y-116376261D01*
X84209000Y-116423880D01*
X84018523Y-116423880D01*
X83923285Y-116376261D01*
X83875666Y-116328642D01*
X83828047Y-116233404D01*
X83828047Y-115423880D01*
X82828047Y-116423880D02*
X83399476Y-116423880D01*
X83113761Y-116423880D02*
X83113761Y-115423880D01*
X83209000Y-115566738D01*
X83304238Y-115661976D01*
X83399476Y-115709595D01*
X66552380Y-100926785D02*
X66076190Y-100593452D01*
X66552380Y-100355357D02*
X65552380Y-100355357D01*
X65552380Y-100736309D01*
X65600000Y-100831547D01*
X65647619Y-100879166D01*
X65742857Y-100926785D01*
X65885714Y-100926785D01*
X65980952Y-100879166D01*
X66028571Y-100831547D01*
X66076190Y-100736309D01*
X66076190Y-100355357D01*
X66552380Y-101355357D02*
X65552380Y-101355357D01*
X65552380Y-101593452D01*
X65600000Y-101736309D01*
X65695238Y-101831547D01*
X65790476Y-101879166D01*
X65980952Y-101926785D01*
X66123809Y-101926785D01*
X66314285Y-101879166D01*
X66409523Y-101831547D01*
X66504761Y-101736309D01*
X66552380Y-101593452D01*
X66552380Y-101355357D01*
X66171428Y-102355357D02*
X66171428Y-103117261D01*
X66552380Y-102736309D02*
X65790476Y-102736309D01*
X66552380Y-104117261D02*
X66552380Y-103545833D01*
X66552380Y-103831547D02*
X65552380Y-103831547D01*
X65695238Y-103736309D01*
X65790476Y-103641071D01*
X65838095Y-103545833D01*
X63452380Y-100901785D02*
X62976190Y-100568452D01*
X63452380Y-100330357D02*
X62452380Y-100330357D01*
X62452380Y-100711309D01*
X62500000Y-100806547D01*
X62547619Y-100854166D01*
X62642857Y-100901785D01*
X62785714Y-100901785D01*
X62880952Y-100854166D01*
X62928571Y-100806547D01*
X62976190Y-100711309D01*
X62976190Y-100330357D01*
X63452380Y-101330357D02*
X62452380Y-101330357D01*
X62452380Y-101568452D01*
X62500000Y-101711309D01*
X62595238Y-101806547D01*
X62690476Y-101854166D01*
X62880952Y-101901785D01*
X63023809Y-101901785D01*
X63214285Y-101854166D01*
X63309523Y-101806547D01*
X63404761Y-101711309D01*
X63452380Y-101568452D01*
X63452380Y-101330357D01*
X63071428Y-102330357D02*
X63071428Y-103092261D01*
X63452380Y-104092261D02*
X63452380Y-103520833D01*
X63452380Y-103806547D02*
X62452380Y-103806547D01*
X62595238Y-103711309D01*
X62690476Y-103616071D01*
X62738095Y-103520833D01*
X95828380Y-110712547D02*
X95352190Y-110379214D01*
X95828380Y-110141119D02*
X94828380Y-110141119D01*
X94828380Y-110522071D01*
X94876000Y-110617309D01*
X94923619Y-110664928D01*
X95018857Y-110712547D01*
X95161714Y-110712547D01*
X95256952Y-110664928D01*
X95304571Y-110617309D01*
X95352190Y-110522071D01*
X95352190Y-110141119D01*
X95447428Y-111141119D02*
X95447428Y-111903023D01*
X95828380Y-112379214D02*
X94828380Y-112379214D01*
X95304571Y-112379214D02*
X95304571Y-112950642D01*
X95828380Y-112950642D02*
X94828380Y-112950642D01*
X94828380Y-113331595D02*
X95828380Y-113569690D01*
X95114095Y-113760166D01*
X95828380Y-113950642D01*
X94828380Y-114188738D01*
X95304571Y-114903023D02*
X95352190Y-115045880D01*
X95399809Y-115093500D01*
X95495047Y-115141119D01*
X95637904Y-115141119D01*
X95733142Y-115093500D01*
X95780761Y-115045880D01*
X95828380Y-114950642D01*
X95828380Y-114569690D01*
X94828380Y-114569690D01*
X94828380Y-114903023D01*
X94876000Y-114998261D01*
X94923619Y-115045880D01*
X95018857Y-115093500D01*
X95114095Y-115093500D01*
X95209333Y-115045880D01*
X95256952Y-114998261D01*
X95304571Y-114903023D01*
X95304571Y-114569690D01*
X95828380Y-116093500D02*
X95828380Y-115522071D01*
X95828380Y-115807785D02*
X94828380Y-115807785D01*
X94971238Y-115712547D01*
X95066476Y-115617309D01*
X95114095Y-115522071D01*
X70862380Y-97844166D02*
X70386190Y-97510833D01*
X70862380Y-97272738D02*
X69862380Y-97272738D01*
X69862380Y-97653690D01*
X69910000Y-97748928D01*
X69957619Y-97796547D01*
X70052857Y-97844166D01*
X70195714Y-97844166D01*
X70290952Y-97796547D01*
X70338571Y-97748928D01*
X70386190Y-97653690D01*
X70386190Y-97272738D01*
X70481428Y-98272738D02*
X70481428Y-99034642D01*
X70814761Y-99463214D02*
X70862380Y-99606071D01*
X70862380Y-99844166D01*
X70814761Y-99939404D01*
X70767142Y-99987023D01*
X70671904Y-100034642D01*
X70576666Y-100034642D01*
X70481428Y-99987023D01*
X70433809Y-99939404D01*
X70386190Y-99844166D01*
X70338571Y-99653690D01*
X70290952Y-99558452D01*
X70243333Y-99510833D01*
X70148095Y-99463214D01*
X70052857Y-99463214D01*
X69957619Y-99510833D01*
X69910000Y-99558452D01*
X69862380Y-99653690D01*
X69862380Y-99891785D01*
X69910000Y-100034642D01*
X69862380Y-100367976D02*
X70862380Y-100606071D01*
X70148095Y-100796547D01*
X70862380Y-100987023D01*
X69862380Y-101225119D01*
X70862380Y-102129880D02*
X70862380Y-101558452D01*
X70862380Y-101844166D02*
X69862380Y-101844166D01*
X70005238Y-101748928D01*
X70100476Y-101653690D01*
X70148095Y-101558452D01*
X61023285Y-121483380D02*
X61356619Y-121007190D01*
X61594714Y-121483380D02*
X61594714Y-120483380D01*
X61213761Y-120483380D01*
X61118523Y-120531000D01*
X61070904Y-120578619D01*
X61023285Y-120673857D01*
X61023285Y-120816714D01*
X61070904Y-120911952D01*
X61118523Y-120959571D01*
X61213761Y-121007190D01*
X61594714Y-121007190D01*
X60213761Y-121435761D02*
X60309000Y-121483380D01*
X60499476Y-121483380D01*
X60594714Y-121435761D01*
X60642333Y-121340523D01*
X60642333Y-120959571D01*
X60594714Y-120864333D01*
X60499476Y-120816714D01*
X60309000Y-120816714D01*
X60213761Y-120864333D01*
X60166142Y-120959571D01*
X60166142Y-121054809D01*
X60642333Y-121150047D01*
X59785190Y-121435761D02*
X59689952Y-121483380D01*
X59499476Y-121483380D01*
X59404238Y-121435761D01*
X59356619Y-121340523D01*
X59356619Y-121292904D01*
X59404238Y-121197666D01*
X59499476Y-121150047D01*
X59642333Y-121150047D01*
X59737571Y-121102428D01*
X59785190Y-121007190D01*
X59785190Y-120959571D01*
X59737571Y-120864333D01*
X59642333Y-120816714D01*
X59499476Y-120816714D01*
X59404238Y-120864333D01*
X58547095Y-121435761D02*
X58642333Y-121483380D01*
X58832809Y-121483380D01*
X58928047Y-121435761D01*
X58975666Y-121340523D01*
X58975666Y-120959571D01*
X58928047Y-120864333D01*
X58832809Y-120816714D01*
X58642333Y-120816714D01*
X58547095Y-120864333D01*
X58499476Y-120959571D01*
X58499476Y-121054809D01*
X58975666Y-121150047D01*
X58213761Y-120816714D02*
X57832809Y-120816714D01*
X58070904Y-120483380D02*
X58070904Y-121340523D01*
X58023285Y-121435761D01*
X57928047Y-121483380D01*
X57832809Y-121483380D01*
X56975666Y-121483380D02*
X57547095Y-121483380D01*
X57261380Y-121483380D02*
X57261380Y-120483380D01*
X57356619Y-120626238D01*
X57451857Y-120721476D01*
X57547095Y-120769095D01*
%LPC*%
D12*
X60150000Y-93325000D03*
X60950000Y-93325000D03*
X66550000Y-93325000D03*
X65750000Y-93325000D03*
D13*
X61600000Y-93325000D03*
X62100000Y-93325000D03*
X62600000Y-93325000D03*
X63100000Y-93325000D03*
X65100000Y-93325000D03*
X64600000Y-93325000D03*
X64100000Y-93325000D03*
X63600000Y-93325000D03*
D14*
X67670000Y-88750000D03*
X59030000Y-88750000D03*
D15*
X59030000Y-92750000D03*
X67670000Y-92750000D03*
G36*
G01*
X64499998Y-97662500D02*
X65400002Y-97662500D01*
G75*
G02*
X65650000Y-97912498I0J-249998D01*
G01*
X65650000Y-98437502D01*
G75*
G02*
X65400002Y-98687500I-249998J0D01*
G01*
X64499998Y-98687500D01*
G75*
G02*
X64250000Y-98437502I0J249998D01*
G01*
X64250000Y-97912498D01*
G75*
G02*
X64499998Y-97662500I249998J0D01*
G01*
G37*
G36*
G01*
X64499998Y-95837500D02*
X65400002Y-95837500D01*
G75*
G02*
X65650000Y-96087498I0J-249998D01*
G01*
X65650000Y-96612502D01*
G75*
G02*
X65400002Y-96862500I-249998J0D01*
G01*
X64499998Y-96862500D01*
G75*
G02*
X64250000Y-96612502I0J249998D01*
G01*
X64250000Y-96087498D01*
G75*
G02*
X64499998Y-95837500I249998J0D01*
G01*
G37*
G36*
G01*
X60899998Y-97662500D02*
X61800002Y-97662500D01*
G75*
G02*
X62050000Y-97912498I0J-249998D01*
G01*
X62050000Y-98437502D01*
G75*
G02*
X61800002Y-98687500I-249998J0D01*
G01*
X60899998Y-98687500D01*
G75*
G02*
X60650000Y-98437502I0J249998D01*
G01*
X60650000Y-97912498D01*
G75*
G02*
X60899998Y-97662500I249998J0D01*
G01*
G37*
G36*
G01*
X60899998Y-95837500D02*
X61800002Y-95837500D01*
G75*
G02*
X62050000Y-96087498I0J-249998D01*
G01*
X62050000Y-96612502D01*
G75*
G02*
X61800002Y-96862500I-249998J0D01*
G01*
X60899998Y-96862500D01*
G75*
G02*
X60650000Y-96612502I0J249998D01*
G01*
X60650000Y-96087498D01*
G75*
G02*
X60899998Y-95837500I249998J0D01*
G01*
G37*
G36*
G01*
X94201000Y-103705000D02*
X93251000Y-103705000D01*
G75*
G02*
X93001000Y-103455000I0J250000D01*
G01*
X93001000Y-102780000D01*
G75*
G02*
X93251000Y-102530000I250000J0D01*
G01*
X94201000Y-102530000D01*
G75*
G02*
X94451000Y-102780000I0J-250000D01*
G01*
X94451000Y-103455000D01*
G75*
G02*
X94201000Y-103705000I-250000J0D01*
G01*
G37*
G36*
G01*
X94201000Y-105780000D02*
X93251000Y-105780000D01*
G75*
G02*
X93001000Y-105530000I0J250000D01*
G01*
X93001000Y-104855000D01*
G75*
G02*
X93251000Y-104605000I250000J0D01*
G01*
X94201000Y-104605000D01*
G75*
G02*
X94451000Y-104855000I0J-250000D01*
G01*
X94451000Y-105530000D01*
G75*
G02*
X94201000Y-105780000I-250000J0D01*
G01*
G37*
G36*
G01*
X127518483Y-112446395D02*
X127517597Y-112446334D01*
G75*
G02*
X126472666Y-111246597I77403J1122334D01*
G01*
X126512666Y-110666597D01*
G75*
G02*
X127712403Y-109621666I1122334J-77403D01*
G01*
X127712403Y-109621666D01*
G75*
G02*
X128757334Y-110821403I-77403J-1122334D01*
G01*
X128717334Y-111401403D01*
G75*
G02*
X127517597Y-112446334I-1122334J77403D01*
G01*
G37*
D16*
X127635000Y-110744000D03*
G36*
G01*
X120533688Y-114121350D02*
X120533683Y-114121345D01*
G75*
G02*
X120447655Y-112532683I751317J837345D01*
G01*
X121757657Y-111072683D01*
G75*
G02*
X123346319Y-110986655I837345J-751317D01*
G01*
X123346319Y-110986655D01*
G75*
G02*
X123432347Y-112575317I-751317J-837345D01*
G01*
X122122345Y-114035317D01*
G75*
G02*
X120533683Y-114121345I-837345J751317D01*
G01*
G37*
D17*
X125095000Y-115824000D03*
D16*
X122595000Y-111824000D03*
D18*
X120015000Y-115824000D03*
X130175000Y-115824000D03*
X111125000Y-96774000D03*
X100965000Y-96774000D03*
D16*
X103545000Y-92774000D03*
D17*
X106045000Y-96774000D03*
G36*
G01*
X101483688Y-95071350D02*
X101483683Y-95071345D01*
G75*
G02*
X101397655Y-93482683I751317J837345D01*
G01*
X102707657Y-92022683D01*
G75*
G02*
X104296319Y-91936655I837345J-751317D01*
G01*
X104296319Y-91936655D01*
G75*
G02*
X104382347Y-93525317I-751317J-837345D01*
G01*
X103072345Y-94985317D01*
G75*
G02*
X101483683Y-95071345I-837345J751317D01*
G01*
G37*
D16*
X108585000Y-91694000D03*
G36*
G01*
X108468483Y-93396395D02*
X108467597Y-93396334D01*
G75*
G02*
X107422666Y-92196597I77403J1122334D01*
G01*
X107462666Y-91616597D01*
G75*
G02*
X108662403Y-90571666I1122334J-77403D01*
G01*
X108662403Y-90571666D01*
G75*
G02*
X109707334Y-91771403I-77403J-1122334D01*
G01*
X109667334Y-92351403D01*
G75*
G02*
X108467597Y-93396334I-1122334J77403D01*
G01*
G37*
G36*
G01*
X88372500Y-116943750D02*
X88372500Y-117856250D01*
G75*
G02*
X88128750Y-118100000I-243750J0D01*
G01*
X87641250Y-118100000D01*
G75*
G02*
X87397500Y-117856250I0J243750D01*
G01*
X87397500Y-116943750D01*
G75*
G02*
X87641250Y-116700000I243750J0D01*
G01*
X88128750Y-116700000D01*
G75*
G02*
X88372500Y-116943750I0J-243750D01*
G01*
G37*
G36*
G01*
X90247500Y-116943750D02*
X90247500Y-117856250D01*
G75*
G02*
X90003750Y-118100000I-243750J0D01*
G01*
X89516250Y-118100000D01*
G75*
G02*
X89272500Y-117856250I0J243750D01*
G01*
X89272500Y-116943750D01*
G75*
G02*
X89516250Y-116700000I243750J0D01*
G01*
X90003750Y-116700000D01*
G75*
G02*
X90247500Y-116943750I0J-243750D01*
G01*
G37*
G36*
G01*
X76186250Y-99192500D02*
X75273750Y-99192500D01*
G75*
G02*
X75030000Y-98948750I0J243750D01*
G01*
X75030000Y-98461250D01*
G75*
G02*
X75273750Y-98217500I243750J0D01*
G01*
X76186250Y-98217500D01*
G75*
G02*
X76430000Y-98461250I0J-243750D01*
G01*
X76430000Y-98948750D01*
G75*
G02*
X76186250Y-99192500I-243750J0D01*
G01*
G37*
G36*
G01*
X76186250Y-101067500D02*
X75273750Y-101067500D01*
G75*
G02*
X75030000Y-100823750I0J243750D01*
G01*
X75030000Y-100336250D01*
G75*
G02*
X75273750Y-100092500I243750J0D01*
G01*
X76186250Y-100092500D01*
G75*
G02*
X76430000Y-100336250I0J-243750D01*
G01*
X76430000Y-100823750D01*
G75*
G02*
X76186250Y-101067500I-243750J0D01*
G01*
G37*
G36*
G01*
X74563750Y-114087500D02*
X75476250Y-114087500D01*
G75*
G02*
X75720000Y-114331250I0J-243750D01*
G01*
X75720000Y-114818750D01*
G75*
G02*
X75476250Y-115062500I-243750J0D01*
G01*
X74563750Y-115062500D01*
G75*
G02*
X74320000Y-114818750I0J243750D01*
G01*
X74320000Y-114331250D01*
G75*
G02*
X74563750Y-114087500I243750J0D01*
G01*
G37*
G36*
G01*
X74563750Y-112212500D02*
X75476250Y-112212500D01*
G75*
G02*
X75720000Y-112456250I0J-243750D01*
G01*
X75720000Y-112943750D01*
G75*
G02*
X75476250Y-113187500I-243750J0D01*
G01*
X74563750Y-113187500D01*
G75*
G02*
X74320000Y-112943750I0J243750D01*
G01*
X74320000Y-112456250D01*
G75*
G02*
X74563750Y-112212500I243750J0D01*
G01*
G37*
G36*
G01*
X89576250Y-96790000D02*
X88663750Y-96790000D01*
G75*
G02*
X88420000Y-96546250I0J243750D01*
G01*
X88420000Y-96058750D01*
G75*
G02*
X88663750Y-95815000I243750J0D01*
G01*
X89576250Y-95815000D01*
G75*
G02*
X89820000Y-96058750I0J-243750D01*
G01*
X89820000Y-96546250D01*
G75*
G02*
X89576250Y-96790000I-243750J0D01*
G01*
G37*
G36*
G01*
X89576250Y-98665000D02*
X88663750Y-98665000D01*
G75*
G02*
X88420000Y-98421250I0J243750D01*
G01*
X88420000Y-97933750D01*
G75*
G02*
X88663750Y-97690000I243750J0D01*
G01*
X89576250Y-97690000D01*
G75*
G02*
X89820000Y-97933750I0J-243750D01*
G01*
X89820000Y-98421250D01*
G75*
G02*
X89576250Y-98665000I-243750J0D01*
G01*
G37*
G36*
G01*
X80766250Y-96797500D02*
X79853750Y-96797500D01*
G75*
G02*
X79610000Y-96553750I0J243750D01*
G01*
X79610000Y-96066250D01*
G75*
G02*
X79853750Y-95822500I243750J0D01*
G01*
X80766250Y-95822500D01*
G75*
G02*
X81010000Y-96066250I0J-243750D01*
G01*
X81010000Y-96553750D01*
G75*
G02*
X80766250Y-96797500I-243750J0D01*
G01*
G37*
G36*
G01*
X80766250Y-98672500D02*
X79853750Y-98672500D01*
G75*
G02*
X79610000Y-98428750I0J243750D01*
G01*
X79610000Y-97941250D01*
G75*
G02*
X79853750Y-97697500I243750J0D01*
G01*
X80766250Y-97697500D01*
G75*
G02*
X81010000Y-97941250I0J-243750D01*
G01*
X81010000Y-98428750D01*
G75*
G02*
X80766250Y-98672500I-243750J0D01*
G01*
G37*
G36*
G01*
X74252500Y-107483750D02*
X74252500Y-108396250D01*
G75*
G02*
X74008750Y-108640000I-243750J0D01*
G01*
X73521250Y-108640000D01*
G75*
G02*
X73277500Y-108396250I0J243750D01*
G01*
X73277500Y-107483750D01*
G75*
G02*
X73521250Y-107240000I243750J0D01*
G01*
X74008750Y-107240000D01*
G75*
G02*
X74252500Y-107483750I0J-243750D01*
G01*
G37*
G36*
G01*
X76127500Y-107483750D02*
X76127500Y-108396250D01*
G75*
G02*
X75883750Y-108640000I-243750J0D01*
G01*
X75396250Y-108640000D01*
G75*
G02*
X75152500Y-108396250I0J243750D01*
G01*
X75152500Y-107483750D01*
G75*
G02*
X75396250Y-107240000I243750J0D01*
G01*
X75883750Y-107240000D01*
G75*
G02*
X76127500Y-107483750I0J-243750D01*
G01*
G37*
D19*
X85720000Y-98140000D03*
X83520000Y-98140000D03*
X83520000Y-96440000D03*
X85720000Y-96440000D03*
D20*
X112014000Y-118874000D03*
X112014000Y-122174000D03*
X130810000Y-102869000D03*
X130810000Y-99569000D03*
X111887000Y-99697000D03*
X111887000Y-102997000D03*
X130937000Y-122174000D03*
X130937000Y-118874000D03*
G36*
G01*
X55625000Y-101825000D02*
X54375000Y-101825000D01*
G75*
G02*
X54125000Y-101575000I0J250000D01*
G01*
X54125000Y-100825000D01*
G75*
G02*
X54375000Y-100575000I250000J0D01*
G01*
X55625000Y-100575000D01*
G75*
G02*
X55875000Y-100825000I0J-250000D01*
G01*
X55875000Y-101575000D01*
G75*
G02*
X55625000Y-101825000I-250000J0D01*
G01*
G37*
G36*
G01*
X55625000Y-99025000D02*
X54375000Y-99025000D01*
G75*
G02*
X54125000Y-98775000I0J250000D01*
G01*
X54125000Y-98025000D01*
G75*
G02*
X54375000Y-97775000I250000J0D01*
G01*
X55625000Y-97775000D01*
G75*
G02*
X55875000Y-98025000I0J-250000D01*
G01*
X55875000Y-98775000D01*
G75*
G02*
X55625000Y-99025000I-250000J0D01*
G01*
G37*
G36*
G01*
X127518483Y-93396395D02*
X127517597Y-93396334D01*
G75*
G02*
X126472666Y-92196597I77403J1122334D01*
G01*
X126512666Y-91616597D01*
G75*
G02*
X127712403Y-90571666I1122334J-77403D01*
G01*
X127712403Y-90571666D01*
G75*
G02*
X128757334Y-91771403I-77403J-1122334D01*
G01*
X128717334Y-92351403D01*
G75*
G02*
X127517597Y-93396334I-1122334J77403D01*
G01*
G37*
D16*
X127635000Y-91694000D03*
G36*
G01*
X120533688Y-95071350D02*
X120533683Y-95071345D01*
G75*
G02*
X120447655Y-93482683I751317J837345D01*
G01*
X121757657Y-92022683D01*
G75*
G02*
X123346319Y-91936655I837345J-751317D01*
G01*
X123346319Y-91936655D01*
G75*
G02*
X123432347Y-93525317I-751317J-837345D01*
G01*
X122122345Y-94985317D01*
G75*
G02*
X120533683Y-95071345I-837345J751317D01*
G01*
G37*
D17*
X125095000Y-96774000D03*
D16*
X122595000Y-92774000D03*
D18*
X120015000Y-96774000D03*
X130175000Y-96774000D03*
X111125000Y-115824000D03*
X100965000Y-115824000D03*
D16*
X103545000Y-111824000D03*
D17*
X106045000Y-115824000D03*
G36*
G01*
X101483688Y-114121350D02*
X101483683Y-114121345D01*
G75*
G02*
X101397655Y-112532683I751317J837345D01*
G01*
X102707657Y-111072683D01*
G75*
G02*
X104296319Y-110986655I837345J-751317D01*
G01*
X104296319Y-110986655D01*
G75*
G02*
X104382347Y-112575317I-751317J-837345D01*
G01*
X103072345Y-114035317D01*
G75*
G02*
X101483683Y-114121345I-837345J751317D01*
G01*
G37*
D16*
X108585000Y-110744000D03*
G36*
G01*
X108468483Y-112446395D02*
X108467597Y-112446334D01*
G75*
G02*
X107422666Y-111246597I77403J1122334D01*
G01*
X107462666Y-110666597D01*
G75*
G02*
X108662403Y-109621666I1122334J-77403D01*
G01*
X108662403Y-109621666D01*
G75*
G02*
X109707334Y-110821403I-77403J-1122334D01*
G01*
X109667334Y-111401403D01*
G75*
G02*
X108467597Y-112446334I-1122334J77403D01*
G01*
G37*
D21*
X79009000Y-112521500D03*
X79009000Y-111721500D03*
X79009000Y-110921500D03*
X79009000Y-110121500D03*
X79009000Y-109321500D03*
X79009000Y-108521500D03*
X79009000Y-107721500D03*
X79009000Y-106921500D03*
X79009000Y-106121500D03*
X79009000Y-105321500D03*
X79009000Y-104521500D03*
D22*
X80709000Y-102821500D03*
X81509000Y-102821500D03*
X82309000Y-102821500D03*
X83109000Y-102821500D03*
X83909000Y-102821500D03*
X84709000Y-102821500D03*
X85509000Y-102821500D03*
X86309000Y-102821500D03*
X87109000Y-102821500D03*
X87909000Y-102821500D03*
X88709000Y-102821500D03*
D21*
X90409000Y-104521500D03*
X90409000Y-105321500D03*
X90409000Y-106121500D03*
X90409000Y-106921500D03*
X90409000Y-107721500D03*
X90409000Y-108521500D03*
X90409000Y-109321500D03*
X90409000Y-110121500D03*
X90409000Y-110921500D03*
X90409000Y-111721500D03*
X90409000Y-112521500D03*
D22*
X88709000Y-114221500D03*
X87909000Y-114221500D03*
X87109000Y-114221500D03*
X86309000Y-114221500D03*
X85509000Y-114221500D03*
X84709000Y-114221500D03*
X83909000Y-114221500D03*
X83109000Y-114221500D03*
X82309000Y-114221500D03*
X81509000Y-114221500D03*
X80709000Y-114221500D03*
G36*
G01*
X64906250Y-101762500D02*
X63993750Y-101762500D01*
G75*
G02*
X63750000Y-101518750I0J243750D01*
G01*
X63750000Y-101031250D01*
G75*
G02*
X63993750Y-100787500I243750J0D01*
G01*
X64906250Y-100787500D01*
G75*
G02*
X65150000Y-101031250I0J-243750D01*
G01*
X65150000Y-101518750D01*
G75*
G02*
X64906250Y-101762500I-243750J0D01*
G01*
G37*
G36*
G01*
X64906250Y-103637500D02*
X63993750Y-103637500D01*
G75*
G02*
X63750000Y-103393750I0J243750D01*
G01*
X63750000Y-102906250D01*
G75*
G02*
X63993750Y-102662500I243750J0D01*
G01*
X64906250Y-102662500D01*
G75*
G02*
X65150000Y-102906250I0J-243750D01*
G01*
X65150000Y-103393750D01*
G75*
G02*
X64906250Y-103637500I-243750J0D01*
G01*
G37*
G36*
G01*
X61806250Y-103612500D02*
X60893750Y-103612500D01*
G75*
G02*
X60650000Y-103368750I0J243750D01*
G01*
X60650000Y-102881250D01*
G75*
G02*
X60893750Y-102637500I243750J0D01*
G01*
X61806250Y-102637500D01*
G75*
G02*
X62050000Y-102881250I0J-243750D01*
G01*
X62050000Y-103368750D01*
G75*
G02*
X61806250Y-103612500I-243750J0D01*
G01*
G37*
G36*
G01*
X61806250Y-101737500D02*
X60893750Y-101737500D01*
G75*
G02*
X60650000Y-101493750I0J243750D01*
G01*
X60650000Y-101006250D01*
G75*
G02*
X60893750Y-100762500I243750J0D01*
G01*
X61806250Y-100762500D01*
G75*
G02*
X62050000Y-101006250I0J-243750D01*
G01*
X62050000Y-101493750D01*
G75*
G02*
X61806250Y-101737500I-243750J0D01*
G01*
G37*
G36*
G01*
X94182250Y-112643500D02*
X93269750Y-112643500D01*
G75*
G02*
X93026000Y-112399750I0J243750D01*
G01*
X93026000Y-111912250D01*
G75*
G02*
X93269750Y-111668500I243750J0D01*
G01*
X94182250Y-111668500D01*
G75*
G02*
X94426000Y-111912250I0J-243750D01*
G01*
X94426000Y-112399750D01*
G75*
G02*
X94182250Y-112643500I-243750J0D01*
G01*
G37*
G36*
G01*
X94182250Y-114518500D02*
X93269750Y-114518500D01*
G75*
G02*
X93026000Y-114274750I0J243750D01*
G01*
X93026000Y-113787250D01*
G75*
G02*
X93269750Y-113543500I243750J0D01*
G01*
X94182250Y-113543500D01*
G75*
G02*
X94426000Y-113787250I0J-243750D01*
G01*
X94426000Y-114274750D01*
G75*
G02*
X94182250Y-114518500I-243750J0D01*
G01*
G37*
G36*
G01*
X71603750Y-98252500D02*
X72516250Y-98252500D01*
G75*
G02*
X72760000Y-98496250I0J-243750D01*
G01*
X72760000Y-98983750D01*
G75*
G02*
X72516250Y-99227500I-243750J0D01*
G01*
X71603750Y-99227500D01*
G75*
G02*
X71360000Y-98983750I0J243750D01*
G01*
X71360000Y-98496250D01*
G75*
G02*
X71603750Y-98252500I243750J0D01*
G01*
G37*
G36*
G01*
X71603750Y-100127500D02*
X72516250Y-100127500D01*
G75*
G02*
X72760000Y-100371250I0J-243750D01*
G01*
X72760000Y-100858750D01*
G75*
G02*
X72516250Y-101102500I-243750J0D01*
G01*
X71603750Y-101102500D01*
G75*
G02*
X71360000Y-100858750I0J243750D01*
G01*
X71360000Y-100371250D01*
G75*
G02*
X71603750Y-100127500I243750J0D01*
G01*
G37*
D23*
X56209000Y-118817000D03*
X62409000Y-115117000D03*
X56209000Y-115117000D03*
X62409000Y-118817000D03*
M02*
