G04 #@! TF.GenerationSoftware,KiCad,Pcbnew,(5.1.9-0-10_14)*
G04 #@! TF.CreationDate,2021-07-23T15:49:21-04:00*
G04 #@! TF.ProjectId,4key-pcb,346b6579-2d70-4636-922e-6b696361645f,rev?*
G04 #@! TF.SameCoordinates,Original*
G04 #@! TF.FileFunction,Copper,L1,Top*
G04 #@! TF.FilePolarity,Positive*
%FSLAX46Y46*%
G04 Gerber Fmt 4.6, Leading zero omitted, Abs format (unit mm)*
G04 Created by KiCad (PCBNEW (5.1.9-0-10_14)) date 2021-07-23 15:49:21*
%MOMM*%
%LPD*%
G01*
G04 APERTURE LIST*
G04 #@! TA.AperFunction,ComponentPad*
%ADD10O,1.000000X2.200000*%
G04 #@! TD*
G04 #@! TA.AperFunction,ComponentPad*
%ADD11O,1.000000X1.800000*%
G04 #@! TD*
G04 #@! TA.AperFunction,ComponentPad*
%ADD12C,2.250000*%
G04 #@! TD*
G04 #@! TA.AperFunction,ViaPad*
%ADD13C,0.800000*%
G04 #@! TD*
G04 #@! TA.AperFunction,Conductor*
%ADD14C,0.381000*%
G04 #@! TD*
G04 #@! TA.AperFunction,Conductor*
%ADD15C,0.254000*%
G04 #@! TD*
G04 APERTURE END LIST*
D10*
X67670000Y-88750000D03*
X59030000Y-88750000D03*
D11*
X59030000Y-92750000D03*
X67670000Y-92750000D03*
G04 #@! TA.AperFunction,ComponentPad*
G36*
G01*
X127518483Y-112446395D02*
X127517597Y-112446334D01*
G75*
G02*
X126472666Y-111246597I77403J1122334D01*
G01*
X126512666Y-110666597D01*
G75*
G02*
X127712403Y-109621666I1122334J-77403D01*
G01*
X127712403Y-109621666D01*
G75*
G02*
X128757334Y-110821403I-77403J-1122334D01*
G01*
X128717334Y-111401403D01*
G75*
G02*
X127517597Y-112446334I-1122334J77403D01*
G01*
G37*
G04 #@! TD.AperFunction*
D12*
X127635000Y-110744000D03*
G04 #@! TA.AperFunction,ComponentPad*
G36*
G01*
X120533688Y-114121350D02*
X120533683Y-114121345D01*
G75*
G02*
X120447655Y-112532683I751317J837345D01*
G01*
X121757657Y-111072683D01*
G75*
G02*
X123346319Y-110986655I837345J-751317D01*
G01*
X123346319Y-110986655D01*
G75*
G02*
X123432347Y-112575317I-751317J-837345D01*
G01*
X122122345Y-114035317D01*
G75*
G02*
X120533683Y-114121345I-837345J751317D01*
G01*
G37*
G04 #@! TD.AperFunction*
X122595000Y-111824000D03*
X103545000Y-92774000D03*
G04 #@! TA.AperFunction,ComponentPad*
G36*
G01*
X101483688Y-95071350D02*
X101483683Y-95071345D01*
G75*
G02*
X101397655Y-93482683I751317J837345D01*
G01*
X102707657Y-92022683D01*
G75*
G02*
X104296319Y-91936655I837345J-751317D01*
G01*
X104296319Y-91936655D01*
G75*
G02*
X104382347Y-93525317I-751317J-837345D01*
G01*
X103072345Y-94985317D01*
G75*
G02*
X101483683Y-95071345I-837345J751317D01*
G01*
G37*
G04 #@! TD.AperFunction*
X108585000Y-91694000D03*
G04 #@! TA.AperFunction,ComponentPad*
G36*
G01*
X108468483Y-93396395D02*
X108467597Y-93396334D01*
G75*
G02*
X107422666Y-92196597I77403J1122334D01*
G01*
X107462666Y-91616597D01*
G75*
G02*
X108662403Y-90571666I1122334J-77403D01*
G01*
X108662403Y-90571666D01*
G75*
G02*
X109707334Y-91771403I-77403J-1122334D01*
G01*
X109667334Y-92351403D01*
G75*
G02*
X108467597Y-93396334I-1122334J77403D01*
G01*
G37*
G04 #@! TD.AperFunction*
G04 #@! TA.AperFunction,ComponentPad*
G36*
G01*
X127518483Y-93396395D02*
X127517597Y-93396334D01*
G75*
G02*
X126472666Y-92196597I77403J1122334D01*
G01*
X126512666Y-91616597D01*
G75*
G02*
X127712403Y-90571666I1122334J-77403D01*
G01*
X127712403Y-90571666D01*
G75*
G02*
X128757334Y-91771403I-77403J-1122334D01*
G01*
X128717334Y-92351403D01*
G75*
G02*
X127517597Y-93396334I-1122334J77403D01*
G01*
G37*
G04 #@! TD.AperFunction*
X127635000Y-91694000D03*
G04 #@! TA.AperFunction,ComponentPad*
G36*
G01*
X120533688Y-95071350D02*
X120533683Y-95071345D01*
G75*
G02*
X120447655Y-93482683I751317J837345D01*
G01*
X121757657Y-92022683D01*
G75*
G02*
X123346319Y-91936655I837345J-751317D01*
G01*
X123346319Y-91936655D01*
G75*
G02*
X123432347Y-93525317I-751317J-837345D01*
G01*
X122122345Y-94985317D01*
G75*
G02*
X120533683Y-95071345I-837345J751317D01*
G01*
G37*
G04 #@! TD.AperFunction*
X122595000Y-92774000D03*
X103545000Y-111824000D03*
G04 #@! TA.AperFunction,ComponentPad*
G36*
G01*
X101483688Y-114121350D02*
X101483683Y-114121345D01*
G75*
G02*
X101397655Y-112532683I751317J837345D01*
G01*
X102707657Y-111072683D01*
G75*
G02*
X104296319Y-110986655I837345J-751317D01*
G01*
X104296319Y-110986655D01*
G75*
G02*
X104382347Y-112575317I-751317J-837345D01*
G01*
X103072345Y-114035317D01*
G75*
G02*
X101483683Y-114121345I-837345J751317D01*
G01*
G37*
G04 #@! TD.AperFunction*
X108585000Y-110744000D03*
G04 #@! TA.AperFunction,ComponentPad*
G36*
G01*
X108468483Y-112446395D02*
X108467597Y-112446334D01*
G75*
G02*
X107422666Y-111246597I77403J1122334D01*
G01*
X107462666Y-110666597D01*
G75*
G02*
X108662403Y-109621666I1122334J-77403D01*
G01*
X108662403Y-109621666D01*
G75*
G02*
X109707334Y-110821403I-77403J-1122334D01*
G01*
X109667334Y-111401403D01*
G75*
G02*
X108467597Y-112446334I-1122334J77403D01*
G01*
G37*
G04 #@! TD.AperFunction*
D13*
X67600000Y-98200000D03*
X59500000Y-98200000D03*
X70180000Y-101040000D03*
X62430000Y-113230000D03*
X76910000Y-112700000D03*
X91810000Y-117440000D03*
X95480000Y-105130000D03*
X77220000Y-107794500D03*
X73900000Y-99410000D03*
D14*
X67600000Y-98200000D02*
X59500000Y-98200000D01*
D15*
X70180000Y-101040000D02*
X70180000Y-104710000D01*
X62430000Y-112460000D02*
X62430000Y-113230000D01*
X70180000Y-104710000D02*
X62430000Y-112460000D01*
D14*
X76910000Y-112700000D02*
X76910000Y-115950000D01*
X76910000Y-115950000D02*
X76930000Y-115950000D01*
X78420000Y-117440000D02*
X91810000Y-117440000D01*
X76930000Y-115950000D02*
X78420000Y-117440000D01*
X91810000Y-117440000D02*
X94180000Y-117440000D01*
X94180000Y-117440000D02*
X95480000Y-116140000D01*
X95480000Y-116140000D02*
X95480000Y-105130000D01*
X76910000Y-112700000D02*
X76910000Y-110090000D01*
X77220000Y-109780000D02*
X77220000Y-107794500D01*
X76910000Y-110090000D02*
X77220000Y-109780000D01*
X77220000Y-107794500D02*
X77220000Y-107140000D01*
X77220000Y-107140000D02*
X73930000Y-103850000D01*
X73930000Y-99440000D02*
X73900000Y-99410000D01*
X73930000Y-103850000D02*
X73930000Y-99440000D01*
D15*
X121285000Y-94234000D02*
X121285000Y-97865000D01*
X122595000Y-99175000D02*
X122595000Y-111824000D01*
X121285000Y-97865000D02*
X122595000Y-99175000D01*
X102235000Y-94234000D02*
X102235000Y-97895000D01*
X103545000Y-99205000D02*
X103545000Y-111824000D01*
X102235000Y-97895000D02*
X103545000Y-99205000D01*
M02*
